<mxfile host="app.diagrams.net" agent="Mozilla/5.0 (Windows NT 10.0; Win64; x64) AppleWebKit/537.36 (KHTML, like Gecko) Chrome/131.0.0.0 Safari/537.36" version="26.0.3">
  <diagram id="R2lEEEUBdFMjLlhIrx00" name="Page-1">
    <mxGraphModel dx="1354" dy="720" grid="1" gridSize="10" guides="1" tooltips="1" connect="1" arrows="1" fold="1" page="1" pageScale="1" pageWidth="1100" pageHeight="850" math="0" shadow="0" extFonts="Permanent Marker^https://fonts.googleapis.com/css?family=Permanent+Marker">
      <root>
        <mxCell id="0" />
        <mxCell id="1" parent="0" />
        <mxCell id="C-vyLk0tnHw3VtMMgP7b-1" value="" style="edgeStyle=entityRelationEdgeStyle;endArrow=ERzeroToMany;startArrow=ERone;endFill=1;startFill=0;exitX=1;exitY=0.5;exitDx=0;exitDy=0;entryX=0;entryY=0.25;entryDx=0;entryDy=0;" parent="1" source="D7cCwQMmbrZFpoqy-v3R-30" target="D7cCwQMmbrZFpoqy-v3R-36" edge="1">
          <mxGeometry width="100" height="100" relative="1" as="geometry">
            <mxPoint x="370" y="150" as="sourcePoint" />
            <mxPoint x="450" y="180" as="targetPoint" />
          </mxGeometry>
        </mxCell>
        <mxCell id="C-vyLk0tnHw3VtMMgP7b-12" value="" style="edgeStyle=entityRelationEdgeStyle;endArrow=ERzeroToMany;startArrow=ERone;endFill=1;startFill=0;exitX=1;exitY=0.25;exitDx=0;exitDy=0;" parent="1" source="D7cCwQMmbrZFpoqy-v3R-36" target="C-vyLk0tnHw3VtMMgP7b-17" edge="1">
          <mxGeometry width="100" height="100" relative="1" as="geometry">
            <mxPoint x="700" y="165" as="sourcePoint" />
            <mxPoint x="460" y="205" as="targetPoint" />
          </mxGeometry>
        </mxCell>
        <mxCell id="C-vyLk0tnHw3VtMMgP7b-13" value="category" style="shape=table;startSize=30;container=1;collapsible=1;childLayout=tableLayout;fixedRows=1;rowLines=0;fontStyle=1;align=center;resizeLast=1;" parent="1" vertex="1">
          <mxGeometry x="540" y="370" width="250" height="90" as="geometry" />
        </mxCell>
        <mxCell id="C-vyLk0tnHw3VtMMgP7b-17" value="" style="shape=partialRectangle;collapsible=0;dropTarget=0;pointerEvents=0;fillColor=none;points=[[0,0.5],[1,0.5]];portConstraint=eastwest;top=0;left=0;right=0;bottom=0;" parent="C-vyLk0tnHw3VtMMgP7b-13" vertex="1">
          <mxGeometry y="30" width="250" height="20" as="geometry" />
        </mxCell>
        <mxCell id="C-vyLk0tnHw3VtMMgP7b-18" value="" style="shape=partialRectangle;overflow=hidden;connectable=0;fillColor=none;top=0;left=0;bottom=0;right=0;" parent="C-vyLk0tnHw3VtMMgP7b-17" vertex="1">
          <mxGeometry width="30" height="20" as="geometry">
            <mxRectangle width="30" height="20" as="alternateBounds" />
          </mxGeometry>
        </mxCell>
        <mxCell id="C-vyLk0tnHw3VtMMgP7b-19" value="idÂ " style="shape=partialRectangle;overflow=hidden;connectable=0;fillColor=none;top=0;left=0;bottom=0;right=0;align=left;spacingLeft=6;" parent="C-vyLk0tnHw3VtMMgP7b-17" vertex="1">
          <mxGeometry x="30" width="220" height="20" as="geometry">
            <mxRectangle width="220" height="20" as="alternateBounds" />
          </mxGeometry>
        </mxCell>
        <mxCell id="C-vyLk0tnHw3VtMMgP7b-20" value="" style="shape=partialRectangle;collapsible=0;dropTarget=0;pointerEvents=0;fillColor=none;points=[[0,0.5],[1,0.5]];portConstraint=eastwest;top=0;left=0;right=0;bottom=0;" parent="C-vyLk0tnHw3VtMMgP7b-13" vertex="1">
          <mxGeometry y="50" width="250" height="30" as="geometry" />
        </mxCell>
        <mxCell id="C-vyLk0tnHw3VtMMgP7b-21" value="" style="shape=partialRectangle;overflow=hidden;connectable=0;fillColor=none;top=0;left=0;bottom=0;right=0;" parent="C-vyLk0tnHw3VtMMgP7b-20" vertex="1">
          <mxGeometry width="30" height="30" as="geometry">
            <mxRectangle width="30" height="30" as="alternateBounds" />
          </mxGeometry>
        </mxCell>
        <mxCell id="C-vyLk0tnHw3VtMMgP7b-22" value="name" style="shape=partialRectangle;overflow=hidden;connectable=0;fillColor=none;top=0;left=0;bottom=0;right=0;align=left;spacingLeft=6;" parent="C-vyLk0tnHw3VtMMgP7b-20" vertex="1">
          <mxGeometry x="30" width="220" height="30" as="geometry">
            <mxRectangle width="220" height="30" as="alternateBounds" />
          </mxGeometry>
        </mxCell>
        <mxCell id="D7cCwQMmbrZFpoqy-v3R-2" value="" style="rounded=0;whiteSpace=wrap;html=1;" parent="1" vertex="1">
          <mxGeometry x="120" y="120" width="250" height="200" as="geometry" />
        </mxCell>
        <mxCell id="D7cCwQMmbrZFpoqy-v3R-3" value="" style="endArrow=none;html=1;rounded=0;entryX=0.008;entryY=0.147;entryDx=0;entryDy=0;entryPerimeter=0;exitX=0.988;exitY=0.155;exitDx=0;exitDy=0;exitPerimeter=0;" parent="1" source="D7cCwQMmbrZFpoqy-v3R-2" target="D7cCwQMmbrZFpoqy-v3R-2" edge="1">
          <mxGeometry width="50" height="50" relative="1" as="geometry">
            <mxPoint x="367" y="160" as="sourcePoint" />
            <mxPoint x="450" y="220" as="targetPoint" />
          </mxGeometry>
        </mxCell>
        <mxCell id="D7cCwQMmbrZFpoqy-v3R-4" value="user" style="text;html=1;align=center;verticalAlign=middle;whiteSpace=wrap;rounded=0;" parent="1" vertex="1">
          <mxGeometry x="120" y="130" width="240" height="20" as="geometry" />
        </mxCell>
        <mxCell id="D7cCwQMmbrZFpoqy-v3R-6" value="" style="rounded=0;whiteSpace=wrap;html=1;" parent="1" vertex="1">
          <mxGeometry x="450" y="100" width="250" height="190" as="geometry" />
        </mxCell>
        <mxCell id="D7cCwQMmbrZFpoqy-v3R-7" value="" style="endArrow=none;html=1;rounded=0;exitX=0;exitY=0.25;exitDx=0;exitDy=0;" parent="1" source="D7cCwQMmbrZFpoqy-v3R-6" target="D7cCwQMmbrZFpoqy-v3R-6" edge="1">
          <mxGeometry width="50" height="50" relative="1" as="geometry">
            <mxPoint x="400" y="270" as="sourcePoint" />
            <mxPoint x="450" y="220" as="targetPoint" />
            <Array as="points">
              <mxPoint x="450" y="130" />
              <mxPoint x="690" y="130" />
            </Array>
          </mxGeometry>
        </mxCell>
        <mxCell id="D7cCwQMmbrZFpoqy-v3R-9" value="quiz" style="text;html=1;align=center;verticalAlign=middle;whiteSpace=wrap;rounded=0;" parent="1" vertex="1">
          <mxGeometry x="450" y="100" width="250" height="30" as="geometry" />
        </mxCell>
        <mxCell id="D7cCwQMmbrZFpoqy-v3R-14" value="" style="rounded=0;whiteSpace=wrap;html=1;" parent="1" vertex="1">
          <mxGeometry x="200" y="360" width="230" height="190" as="geometry" />
        </mxCell>
        <mxCell id="D7cCwQMmbrZFpoqy-v3R-16" value="" style="endArrow=none;html=1;rounded=0;entryX=0.32;entryY=1;entryDx=0;entryDy=0;entryPerimeter=0;exitX=0.704;exitY=-0.016;exitDx=0;exitDy=0;exitPerimeter=0;" parent="1" source="D7cCwQMmbrZFpoqy-v3R-14" target="D7cCwQMmbrZFpoqy-v3R-6" edge="1">
          <mxGeometry width="50" height="50" relative="1" as="geometry">
            <mxPoint x="360" y="340" as="sourcePoint" />
            <mxPoint x="530" y="340" as="targetPoint" />
            <Array as="points">
              <mxPoint x="362" y="340" />
              <mxPoint x="530" y="340" />
            </Array>
          </mxGeometry>
        </mxCell>
        <mxCell id="D7cCwQMmbrZFpoqy-v3R-17" value="Question&amp;nbsp;&lt;div&gt;&lt;br&gt;&lt;/div&gt;&lt;div&gt;&lt;br&gt;&lt;/div&gt;&lt;div&gt;id&amp;nbsp;&lt;/div&gt;&lt;div&gt;&lt;br&gt;&lt;/div&gt;&lt;div&gt;quiz_id&amp;nbsp;&lt;/div&gt;&lt;div&gt;&lt;br&gt;&lt;/div&gt;&lt;div&gt;question_text&lt;/div&gt;&lt;div&gt;&lt;br&gt;&lt;/div&gt;&lt;div&gt;difficulty&lt;/div&gt;&lt;div&gt;&lt;br&gt;&lt;/div&gt;&lt;div&gt;&lt;br&gt;&lt;/div&gt;" style="text;html=1;align=center;verticalAlign=middle;whiteSpace=wrap;rounded=0;" parent="1" vertex="1">
          <mxGeometry x="200" y="360" width="230" height="190" as="geometry" />
        </mxCell>
        <mxCell id="D7cCwQMmbrZFpoqy-v3R-19" value="" style="endArrow=none;html=1;rounded=0;exitX=0.009;exitY=0.189;exitDx=0;exitDy=0;exitPerimeter=0;entryX=0.987;entryY=0.184;entryDx=0;entryDy=0;entryPerimeter=0;" parent="1" source="D7cCwQMmbrZFpoqy-v3R-17" target="D7cCwQMmbrZFpoqy-v3R-17" edge="1">
          <mxGeometry width="50" height="50" relative="1" as="geometry">
            <mxPoint x="210" y="399" as="sourcePoint" />
            <mxPoint x="420" y="390" as="targetPoint" />
          </mxGeometry>
        </mxCell>
        <mxCell id="D7cCwQMmbrZFpoqy-v3R-23" value="" style="rounded=0;whiteSpace=wrap;html=1;" parent="1" vertex="1">
          <mxGeometry x="195" y="590" width="235" height="210" as="geometry" />
        </mxCell>
        <mxCell id="D7cCwQMmbrZFpoqy-v3R-24" value="" style="endArrow=classic;html=1;rounded=0;entryX=0.545;entryY=-0.005;entryDx=0;entryDy=0;entryPerimeter=0;exitX=0.53;exitY=1.016;exitDx=0;exitDy=0;exitPerimeter=0;" parent="1" source="D7cCwQMmbrZFpoqy-v3R-17" target="D7cCwQMmbrZFpoqy-v3R-23" edge="1">
          <mxGeometry width="50" height="50" relative="1" as="geometry">
            <mxPoint x="380" y="710" as="sourcePoint" />
            <mxPoint x="430" y="660" as="targetPoint" />
          </mxGeometry>
        </mxCell>
        <mxCell id="D7cCwQMmbrZFpoqy-v3R-25" value="" style="endArrow=none;html=1;rounded=0;exitX=0;exitY=0.171;exitDx=0;exitDy=0;exitPerimeter=0;entryX=0.983;entryY=0.167;entryDx=0;entryDy=0;entryPerimeter=0;" parent="1" source="D7cCwQMmbrZFpoqy-v3R-23" target="D7cCwQMmbrZFpoqy-v3R-23" edge="1">
          <mxGeometry width="50" height="50" relative="1" as="geometry">
            <mxPoint x="380" y="710" as="sourcePoint" />
            <mxPoint x="426" y="633" as="targetPoint" />
          </mxGeometry>
        </mxCell>
        <mxCell id="D7cCwQMmbrZFpoqy-v3R-26" value="Answers" style="text;html=1;align=center;verticalAlign=middle;whiteSpace=wrap;rounded=0;" parent="1" vertex="1">
          <mxGeometry x="190" y="590" width="230" height="30" as="geometry" />
        </mxCell>
        <mxCell id="D7cCwQMmbrZFpoqy-v3R-27" value="id&amp;nbsp;&lt;div&gt;&lt;br&gt;&lt;/div&gt;&lt;div&gt;question_id&amp;nbsp;&lt;/div&gt;&lt;div&gt;&lt;br&gt;&lt;/div&gt;&lt;div&gt;answer_text&lt;/div&gt;&lt;div&gt;&lt;br&gt;&lt;/div&gt;&lt;div&gt;is_correct&lt;/div&gt;&lt;div&gt;&lt;br&gt;&lt;/div&gt;" style="text;html=1;align=center;verticalAlign=middle;whiteSpace=wrap;rounded=0;" parent="1" vertex="1">
          <mxGeometry x="200" y="630" width="230" height="140" as="geometry" />
        </mxCell>
        <mxCell id="D7cCwQMmbrZFpoqy-v3R-30" value="id&amp;nbsp;" style="text;html=1;align=center;verticalAlign=middle;whiteSpace=wrap;rounded=0;" parent="1" vertex="1">
          <mxGeometry x="120" y="150" width="250" height="30" as="geometry" />
        </mxCell>
        <mxCell id="D7cCwQMmbrZFpoqy-v3R-31" value="user_name&amp;nbsp;" style="text;html=1;align=center;verticalAlign=middle;whiteSpace=wrap;rounded=0;" parent="1" vertex="1">
          <mxGeometry x="120" y="170" width="250" height="30" as="geometry" />
        </mxCell>
        <mxCell id="D7cCwQMmbrZFpoqy-v3R-32" value="email" style="text;html=1;align=center;verticalAlign=middle;whiteSpace=wrap;rounded=0;" parent="1" vertex="1">
          <mxGeometry x="120" y="200" width="250" height="30" as="geometry" />
        </mxCell>
        <mxCell id="D7cCwQMmbrZFpoqy-v3R-33" value="password" style="text;html=1;align=center;verticalAlign=middle;whiteSpace=wrap;rounded=0;" parent="1" vertex="1">
          <mxGeometry x="120" y="220" width="250" height="30" as="geometry" />
        </mxCell>
        <mxCell id="D7cCwQMmbrZFpoqy-v3R-34" value="is_admin" style="text;html=1;align=center;verticalAlign=middle;whiteSpace=wrap;rounded=0;" parent="1" vertex="1">
          <mxGeometry x="120" y="250" width="250" height="30" as="geometry" />
        </mxCell>
        <mxCell id="D7cCwQMmbrZFpoqy-v3R-35" value="date_joined" style="text;html=1;align=center;verticalAlign=middle;whiteSpace=wrap;rounded=0;" parent="1" vertex="1">
          <mxGeometry x="120" y="280" width="250" height="30" as="geometry" />
        </mxCell>
        <mxCell id="D7cCwQMmbrZFpoqy-v3R-36" value="id" style="text;html=1;align=center;verticalAlign=middle;whiteSpace=wrap;rounded=0;" parent="1" vertex="1">
          <mxGeometry x="450" y="140" width="250" height="30" as="geometry" />
        </mxCell>
        <mxCell id="D7cCwQMmbrZFpoqy-v3R-37" value="title&amp;nbsp;" style="text;html=1;align=center;verticalAlign=middle;whiteSpace=wrap;rounded=0;" parent="1" vertex="1">
          <mxGeometry x="450" y="180" width="250" height="30" as="geometry" />
        </mxCell>
        <mxCell id="D7cCwQMmbrZFpoqy-v3R-38" value="&#xa;&lt;br class=&quot;Apple-interchange-newline&quot;&gt;&lt;span style=&quot;color: rgb(0, 0, 0); font-family: Helvetica; font-size: 12px; font-style: normal; font-variant-ligatures: normal; font-variant-caps: normal; font-weight: 400; letter-spacing: normal; orphans: 2; text-align: center; text-indent: 0px; text-transform: none; widows: 2; word-spacing: 0px; -webkit-text-stroke-width: 0px; white-space: normal; background-color: rgb(251, 251, 251); text-decoration-thickness: initial; text-decoration-style: initial; text-decoration-color: initial; display: inline !important; float: none;&quot;&gt;description&lt;/span&gt;&#xa;&#xa;" style="text;html=1;align=center;verticalAlign=middle;whiteSpace=wrap;rounded=0;" parent="1" vertex="1">
          <mxGeometry x="450" y="205" width="250" height="30" as="geometry" />
        </mxCell>
        <mxCell id="D7cCwQMmbrZFpoqy-v3R-39" value="created_by" style="text;html=1;align=center;verticalAlign=middle;whiteSpace=wrap;rounded=0;" parent="1" vertex="1">
          <mxGeometry x="450" y="235" width="250" height="30" as="geometry" />
        </mxCell>
        <mxCell id="D7cCwQMmbrZFpoqy-v3R-41" value="" style="endArrow=classic;html=1;rounded=0;exitX=-0.004;exitY=0.319;exitDx=0;exitDy=0;exitPerimeter=0;entryX=0;entryY=0.5;entryDx=0;entryDy=0;" parent="1" target="D7cCwQMmbrZFpoqy-v3R-30" edge="1">
          <mxGeometry width="50" height="50" relative="1" as="geometry">
            <mxPoint x="189.99999999999994" y="649.49" as="sourcePoint" />
            <mxPoint x="115.94" y="150" as="targetPoint" />
            <Array as="points">
              <mxPoint x="60" y="650" />
              <mxPoint x="60" y="165" />
              <mxPoint x="90" y="165" />
            </Array>
          </mxGeometry>
        </mxCell>
        <mxCell id="D7cCwQMmbrZFpoqy-v3R-42" value="" style="rounded=0;whiteSpace=wrap;html=1;" parent="1" vertex="1">
          <mxGeometry x="490" y="590" width="220" height="210" as="geometry" />
        </mxCell>
        <mxCell id="D7cCwQMmbrZFpoqy-v3R-43" value="" style="endArrow=none;html=1;rounded=0;entryX=0.995;entryY=0.148;entryDx=0;entryDy=0;entryPerimeter=0;exitX=0.005;exitY=0.148;exitDx=0;exitDy=0;exitPerimeter=0;" parent="1" source="D7cCwQMmbrZFpoqy-v3R-42" target="D7cCwQMmbrZFpoqy-v3R-42" edge="1">
          <mxGeometry width="50" height="50" relative="1" as="geometry">
            <mxPoint x="390" y="770" as="sourcePoint" />
            <mxPoint x="440" y="720" as="targetPoint" />
          </mxGeometry>
        </mxCell>
        <mxCell id="D7cCwQMmbrZFpoqy-v3R-44" value="Test_Result" style="text;html=1;align=center;verticalAlign=middle;whiteSpace=wrap;rounded=0;" parent="1" vertex="1">
          <mxGeometry x="490" y="590" width="220" height="30" as="geometry" />
        </mxCell>
        <mxCell id="D7cCwQMmbrZFpoqy-v3R-45" value="id&amp;nbsp;" style="text;html=1;align=center;verticalAlign=middle;whiteSpace=wrap;rounded=0;" parent="1" vertex="1">
          <mxGeometry x="490" y="620" width="210" height="30" as="geometry" />
        </mxCell>
        <mxCell id="D7cCwQMmbrZFpoqy-v3R-46" value="user_is" style="text;html=1;align=center;verticalAlign=middle;whiteSpace=wrap;rounded=0;" parent="1" vertex="1">
          <mxGeometry x="495" y="650" width="210" height="30" as="geometry" />
        </mxCell>
        <mxCell id="D7cCwQMmbrZFpoqy-v3R-47" value="quiz_id&lt;span style=&quot;color: rgba(0, 0, 0, 0); font-family: monospace; font-size: 0px; text-align: start; text-wrap-mode: nowrap;&quot;&gt;%3CmxGraphModel%3E%3Croot%3E%3CmxCell%20id%3D%220%22%2F%3E%3CmxCell%20id%3D%221%22%20parent%3D%220%22%2F%3E%3CmxCell%20id%3D%222%22%20value%3D%22user_is%22%20style%3D%22text%3Bhtml%3D1%3Balign%3Dcenter%3BverticalAlign%3Dmiddle%3BwhiteSpace%3Dwrap%3Brounded%3D0%3B%22%20vertex%3D%221%22%20parent%3D%221%22%3E%3CmxGeometry%20x%3D%22495%22%20y%3D%22650%22%20width%3D%22210%22%20height%3D%2230%22%20as%3D%22geometry%22%2F%3E%3C%2FmxCell%3E%3C%2Froot%3E%3C%2FmxGraphModel%3E&lt;/span&gt;" style="text;html=1;align=center;verticalAlign=middle;whiteSpace=wrap;rounded=0;" parent="1" vertex="1">
          <mxGeometry x="495" y="680" width="210" height="30" as="geometry" />
        </mxCell>
        <mxCell id="D7cCwQMmbrZFpoqy-v3R-48" value="score&lt;span style=&quot;color: rgba(0, 0, 0, 0); font-family: monospace; font-size: 0px; text-align: start; text-wrap-mode: nowrap;&quot;&gt;%3CmxGraphModel%3E%3Croot%3E%3CmxCell%20id%3D%220%22%2F%3E%3CmxCell%20id%3D%221%22%20parent%3D%220%22%2F%3E%3CmxCell%20id%3D%222%22%20value%3D%22quiz_id%26lt%3Bspan%20style%3D%26quot%3Bcolor%3A%20rgba(0%2C%200%2C%200%2C%200)%3B%20font-family%3A%20monospace%3B%20font-size%3A%200px%3B%20text-align%3A%20start%3B%20text-wrap-mode%3A%20nowrap%3B%26quot%3B%26gt%3B%253CmxGraphModel%253E%253Croot%253E%253CmxCell%2520id%253D%25220%2522%252F%253E%253CmxCell%2520id%253D%25221%2522%2520parent%253D%25220%2522%252F%253E%253CmxCell%2520id%253D%25222%2522%2520value%253D%2522user_is%2522%2520style%253D%2522text%253Bhtml%253D1%253Balign%253Dcenter%253BverticalAlign%253Dmiddle%253BwhiteSpace%253Dwrap%253Brounded%253D0%253B%2522%2520vertex%253D%25221%2522%2520parent%253D%25221%2522%253E%253CmxGeometry%2520x%253D%2522495%2522%2520y%253D%2522650%2522%2520width%253D%2522210%2522%2520height%253D%252230%2522%2520as%253D%2522geometry%2522%252F%253E%253C%252FmxCell%253E%253C%252Froot%253E%253C%252FmxGraphModel%253E%26lt%3B%2Fspan%26gt%3B%22%20style%3D%22text%3Bhtml%3D1%3Balign%3Dcenter%3BverticalAlign%3Dmiddle%3BwhiteSpace%3Dwrap%3Brounded%3D0%3B%22%20vertex%3D%221%22%20parent%3D%221%22%3E%3CmxGeometry%20x%3D%22495%22%20y%3D%22680%22%20width%3D%22210%22%20height%3D%2230%22%20as%3D%22geometry%22%2F%3E%3C%2FmxCell%3E%3C%2Froot%3E%3C%2FmxGraphModel%3E&lt;/span&gt;" style="text;html=1;align=center;verticalAlign=middle;whiteSpace=wrap;rounded=0;" parent="1" vertex="1">
          <mxGeometry x="495" y="700" width="210" height="30" as="geometry" />
        </mxCell>
        <mxCell id="D7cCwQMmbrZFpoqy-v3R-49" value="data_taken" style="text;html=1;align=center;verticalAlign=middle;whiteSpace=wrap;rounded=0;" parent="1" vertex="1">
          <mxGeometry x="500" y="730" width="210" height="30" as="geometry" />
        </mxCell>
        <mxCell id="D7cCwQMmbrZFpoqy-v3R-50" value="is _passed" style="text;html=1;align=center;verticalAlign=middle;whiteSpace=wrap;rounded=0;" parent="1" vertex="1">
          <mxGeometry x="495" y="760" width="210" height="30" as="geometry" />
        </mxCell>
        <mxCell id="D7cCwQMmbrZFpoqy-v3R-51" value="" style="endArrow=classic;html=1;rounded=0;entryX=1;entryY=0.25;entryDx=0;entryDy=0;exitX=1;exitY=0.2;exitDx=0;exitDy=0;exitPerimeter=0;" parent="1" source="D7cCwQMmbrZFpoqy-v3R-42" edge="1">
          <mxGeometry width="50" height="50" relative="1" as="geometry">
            <mxPoint x="790" y="630" as="sourcePoint" />
            <mxPoint x="430" y="420" as="targetPoint" />
            <Array as="points">
              <mxPoint x="790" y="630" />
              <mxPoint x="790" y="560" />
              <mxPoint x="520" y="562.5" />
              <mxPoint x="520" y="420.5" />
            </Array>
          </mxGeometry>
        </mxCell>
        <mxCell id="D7cCwQMmbrZFpoqy-v3R-55" value="" style="endArrow=none;html=1;rounded=0;entryX=-0.018;entryY=0.367;entryDx=0;entryDy=0;entryPerimeter=0;" parent="1" edge="1">
          <mxGeometry width="50" height="50" relative="1" as="geometry">
            <mxPoint x="30" y="150" as="sourcePoint" />
            <mxPoint x="489.99999999999994" y="667.0699999999999" as="targetPoint" />
            <Array as="points">
              <mxPoint x="30" y="840" />
              <mxPoint x="454" y="830" />
              <mxPoint x="453.96" y="667" />
            </Array>
          </mxGeometry>
        </mxCell>
        <mxCell id="D7cCwQMmbrZFpoqy-v3R-57" value="" style="edgeStyle=entityRelationEdgeStyle;endArrow=ERzeroToMany;startArrow=ERone;endFill=1;startFill=0;entryX=0;entryY=0.25;entryDx=0;entryDy=0;" parent="1" edge="1">
          <mxGeometry width="100" height="100" relative="1" as="geometry">
            <mxPoint x="30" y="157" as="sourcePoint" />
            <mxPoint x="120" y="156.5" as="targetPoint" />
            <Array as="points">
              <mxPoint x="70" y="168.5" />
            </Array>
          </mxGeometry>
        </mxCell>
      </root>
    </mxGraphModel>
  </diagram>
</mxfile>
